#N canvas 1353 258 934 1010 12;
#X text 25 12 This patcher requires the following additionnal libraries
of objects : mrpeach \, comport and cyclone;
#X obj 469 83 cnv 15 400 100 empty empty empty 20 12 0 14 -203904 -66577
0;
#X obj 460 684 cnv 15 400 260 empty empty empty 20 12 0 14 -203904
-66577 0;
#X obj 72 135 cnv 15 200 40 empty empty empty 20 12 0 14 -262130 -66577
0;
#X obj 53 228 cnv 15 800 400 empty empty empty 20 12 0 14 -204786 -66577
0;
#X obj 66 279 cnv 15 700 200 empty empty empty 20 12 0 14 -204800 -66577
0;
#X obj 179 447 print errors;
#X msg 138 289 devices;
#X text 195 417 Serial port input/output;
#X msg 156 340 baud 115200 \, devicename COM3;
#X text 200 288 List all serial ports;
#X text 364 341 Configure the baud rate and open the named serial port
;
#X msg 196 363 close;
#X text 244 362 Close the port;
#N canvas 156 156 1101 683 multof4 0;
#X obj 157 132 list length;
#X obj 161 161 % 4;
#X obj 168 199 == 0;
#X obj 236 245 select 0;
#N canvas 182 182 896 652 switcher 0;
#X obj 217 67 inlet;
#X obj 230 412 outlet out0;
#X obj 432 408 outlet out1;
#X obj 392 65 inlet select outlet;
#X obj 270 281 route 0 1;
#X obj 265 222 list prepend 0;
#X connect 0 0 5 0;
#X connect 3 0 5 1;
#X connect 4 0 1 0;
#X connect 4 1 2 0;
#X connect 5 0 4 0;
#X restore 104 312 pd switcher;
#X obj 103 96 t a a b;
#X msg 270 90 0;
#X msg 238 284 1;
#X obj 246 434 outlet error;
#X obj 105 431 outlet valid;
#X obj 102 37 inlet list;
#X connect 0 0 1 0;
#X connect 1 0 2 0;
#X connect 2 0 3 0;
#X connect 3 0 7 0;
#X connect 4 0 9 0;
#X connect 4 1 8 0;
#X connect 5 0 4 0;
#X connect 5 1 0 0;
#X connect 5 2 6 0;
#X connect 6 0 4 1;
#X connect 7 0 4 1;
#X connect 10 0 5 0;
#X restore 79 561 pd multof4;
#X text 234 503 Convert from SLIP to a raw OSC message;
#X text 182 232 Convert from raw OSC to SLIP;
#X obj 156 315 loadbang;
#X obj 108 176 bng 15 250 50 0 empty empty data 17 7 0 10 -262144 -1
-1;
#X obj 473 875 spigot;
#X obj 511 851 tgl 15 0 empty empty empty 17 7 0 10 -262144 -1 -1 0
1;
#X obj 472 919 print debug;
#X obj 217 758 cnv 15 200 100 empty empty empty 20 12 0 14 -262130
-66577 0;
#X obj 233 767 loadbang;
#X msg 233 831 disconnect;
#X msg 233 799 connect localhost 7001;
#X text 530 850 Print the message sent by the serial port;
#X obj 84 147 netreceive -u -b 7000;
#N canvas 0 50 1091 873 listToSlip 0;
#X obj 258 613 list store;
#X msg 602 532 append \$1;
#X obj 574 456 select 192 219;
#X msg 580 494 219 \, 220;
#X msg 673 495 219 \, 221;
#X msg 119 464 append 192 \, bang;
#X msg 293 411 192;
#X obj 635 787 outlet error;
#X obj 347 790 outlet slip;
#N canvas 156 156 450 300 iterate 0;
#X obj 118 136 until;
#X obj 131 219 list store;
#X obj 152 103 t b b l;
#X obj 118 161 f;
#X obj 156 162 + 1;
#X msg 175 136 0, f 2;
#X msg 118 192 get \$1 1;
#X obj 159 28 inlet;
#X obj 175 266 outlet;
#X connect 0 0 3 0;
#X connect 1 0 8 0;
#X connect 1 1 0 1;
#X connect 2 0 0 0;
#X connect 2 1 5 0;
#X connect 2 2 1 1;
#X connect 3 0 4 0;
#X connect 3 0 6 0;
#X connect 4 0 3 1;
#X connect 5 0 3 1;
#X connect 6 0 1 0;
#X connect 7 0 2 0;
#X restore 391 274 pd iterate;
#X obj 479 349 moses 256;
#X obj 391 311 moses 0;
#X obj 218 52 inlet list;
#N canvas 182 182 896 652 switcher 0;
#X obj 217 67 inlet;
#X obj 230 412 outlet out0;
#X obj 432 408 outlet out1;
#X obj 392 65 inlet select outlet;
#X obj 270 281 route 0 1;
#X obj 265 222 list prepend 0;
#X connect 0 0 5 0;
#X connect 3 0 5 1;
#X connect 4 0 1 0;
#X connect 4 1 2 0;
#X connect 5 0 4 0;
#X restore 401 688 pd switcher;
#X msg 442 445 1;
#X obj 218 130 t b b a b;
#X msg 391 448 0;
#X connect 0 0 13 0;
#X connect 1 0 0 0;
#X connect 2 0 3 0;
#X connect 2 1 4 0;
#X connect 2 2 1 0;
#X connect 3 0 1 0;
#X connect 4 0 1 0;
#X connect 5 0 0 0;
#X connect 6 0 0 1;
#X connect 9 0 11 0;
#X connect 10 0 2 0;
#X connect 10 1 14 0;
#X connect 11 0 14 0;
#X connect 11 1 10 0;
#X connect 12 0 15 0;
#X connect 13 0 8 0;
#X connect 13 1 7 0;
#X connect 14 0 13 1;
#X connect 15 0 16 0;
#X connect 15 1 5 0;
#X connect 15 2 9 0;
#X connect 15 3 6 0;
#X connect 16 0 13 1;
#X restore 84 233 pd listToSlip;
#X obj 78 418 comport/comport;
#X obj 173 257 bng 15 250 50 0 empty empty error 17 7 0 10 -262144
-1 -1;
#X text 157 555 Error checking : make sure the packet size is a multiple
of 4;
#N canvas 0 50 1195 915 slipToList 0;
#X obj 292 702 list store;
#X obj 293 806 route bang;
#X obj 281 309 select 192;
#X obj 750 475 select 219;
#X obj 813 672 select 220 221;
#X msg 801 726 192;
#X msg 848 724 219;
#X obj 823 637 t a b;
#N canvas 156 156 450 300 iterate 0;
#X obj 118 136 until;
#X obj 131 219 list store;
#X obj 152 103 t b b l;
#X obj 118 161 f;
#X obj 156 162 + 1;
#X msg 175 136 0, f 2;
#X msg 118 192 get \$1 1;
#X obj 159 28 inlet;
#X obj 175 266 outlet;
#X connect 0 0 3 0;
#X connect 1 0 8 0;
#X connect 1 1 0 1;
#X connect 2 0 0 0;
#X connect 2 1 5 0;
#X connect 2 2 1 1;
#X connect 3 0 4 0;
#X connect 3 0 6 0;
#X connect 4 0 3 1;
#X connect 5 0 3 1;
#X connect 6 0 1 0;
#X connect 7 0 2 0;
#X restore 281 261 pd iterate;
#X obj 366 1046 outlet decoded;
#X obj 639 1059 outlet error;
#N canvas 182 182 896 652 switcher 0;
#X obj 217 67 inlet;
#X obj 230 412 outlet out0;
#X obj 432 408 outlet out1;
#X obj 392 65 inlet select outlet;
#X obj 270 281 route 0 1;
#X obj 265 222 list prepend 0;
#X connect 0 0 5 0;
#X connect 3 0 5 1;
#X connect 4 0 1 0;
#X connect 4 1 2 0;
#X connect 5 0 4 0;
#X restore 798 586 pd switcher;
#X msg 692 781 append \$1;
#X msg 919 564 0;
#X msg 746 532 1;
#X obj 280 464 t b b b b;
#X msg 540 883 0;
#X msg 932 799 1;
#X obj 140 34 inlet list;
#N canvas 182 182 896 652 switcher 0;
#X obj 217 67 inlet;
#X obj 230 412 outlet out0;
#X obj 432 408 outlet out1;
#X obj 392 65 inlet select outlet;
#X obj 270 281 route 0 1;
#X obj 265 222 list prepend 0;
#X connect 0 0 5 0;
#X connect 3 0 5 1;
#X connect 4 0 1 0;
#X connect 4 1 2 0;
#X connect 5 0 4 0;
#X restore 468 942 pd switcher;
#X connect 0 0 1 0;
#X connect 1 1 19 0;
#X connect 2 0 15 0;
#X connect 2 1 3 0;
#X connect 3 0 14 0;
#X connect 3 1 11 0;
#X connect 4 0 5 0;
#X connect 4 1 6 0;
#X connect 4 2 17 0;
#X connect 5 0 12 0;
#X connect 6 0 12 0;
#X connect 7 0 4 0;
#X connect 7 1 13 0;
#X connect 8 0 2 0;
#X connect 11 0 12 0;
#X connect 11 1 7 0;
#X connect 12 0 0 0;
#X connect 13 0 11 1;
#X connect 14 0 11 1;
#X connect 15 0 16 0;
#X connect 15 1 0 1;
#X connect 15 2 0 0;
#X connect 16 0 19 1;
#X connect 17 0 19 1;
#X connect 18 0 8 0;
#X connect 19 0 9 0;
#X connect 19 1 10 0;
#X restore 78 504 pd slipToList;
#X obj 171 530 bng 15 250 50 0 empty empty error 17 7 0 10 -262144
-1 -1;
#X obj 95 447 bng 15 250 50 0 empty empty data 17 7 0 10 -262144 -1
-1;
#X obj 187 589 bng 15 250 50 0 empty empty error 17 7 0 10 -262144
-1 -1;
#X obj 79 862 netsend -u -b;
#X obj 473 694 oscparse;
#X text 536 695 Convert raw OSC to PD message;
#X obj 473 723 list trim;
#X obj 79 717 list prepend send;
#X obj 79 743 list trim;
#X floatatom 532 800 5 0 0 0 - - -;
#X floatatom 589 800 5 0 0 0 - - -;
#X obj 646 803 tgl 15 0 empty empty empty 17 7 0 10 -262144 -1 -1 0
1;
#X obj 477 95 tgl 15 0 empty empty empty 17 7 0 10 -262144 -1 -1 0
1;
#X floatatom 682 95 5 0 255 0 - - -;
#X obj 532 766 route pot photo button;
#X obj 477 128 oscformat -f i led;
#X obj 682 127 oscformat -f i pwm;
#X text 515 743 WARNING: oscparse removes the / from the address;
#X text 481 149 WARNING: oscfornat automatically adds the / to the
address;
#X connect 7 0 29 0;
#X connect 9 0 29 0;
#X connect 12 0 29 0;
#X connect 14 0 37 0;
#X connect 14 0 40 0;
#X connect 14 1 35 0;
#X connect 17 0 9 0;
#X connect 19 0 21 0;
#X connect 20 0 19 1;
#X connect 23 0 25 0;
#X connect 24 0 36 0;
#X connect 25 0 36 0;
#X connect 27 0 28 0;
#X connect 27 0 18 0;
#X connect 28 0 29 0;
#X connect 28 1 30 0;
#X connect 29 0 32 0;
#X connect 29 0 34 0;
#X connect 29 1 6 0;
#X connect 32 0 14 0;
#X connect 32 1 33 0;
#X connect 37 0 39 0;
#X connect 39 0 19 0;
#X connect 39 0 47 0;
#X connect 40 0 41 0;
#X connect 41 0 36 0;
#X connect 45 0 48 0;
#X connect 46 0 49 0;
#X connect 47 0 42 0;
#X connect 47 1 43 0;
#X connect 47 2 44 0;
#X connect 48 0 28 0;
#X connect 49 0 28 0;
