#N canvas 73 254 1641 1010 12;
#X obj 302 633 loadbang;
#X obj 81 776 mrpeach/udpsend;
#X msg 316 707 disconnect;
#X text 25 12 This patcher requires the following additionnal libraries
of objects : mrpeach \, comport and cyclone;
#X obj 61 230 cnv 15 800 300 empty empty empty 20 12 0 14 #c6ffc7 #404040
0;
#X obj 180 448 print errors;
#X msg 157 268 devices;
#X obj 78 418 comport/comport;
#X text 195 418 Serial port input/output;
#X msg 186 318 baud 115200 \, devicename COM3;
#X text 219 268 List all serial ports;
#X text 391 318 Configure the baud rate and open the named serial port
;
#X msg 228 349 close;
#X text 276 350 Close the port;
#X obj 78 504 mrpeach/slipdec 65536;
#N canvas 156 156 1101 683 multof4 0;
#X obj 91 60 inlet;
#X obj 106 303 outlet;
#X obj 157 132 list length;
#X obj 161 161 % 4;
#X obj 103 96 t l l;
#X obj 168 199 == 0;
#X obj 120 243 spigot;
#X obj 254 237 select 0;
#X msg 254 275 OSC packet not a multiple of 4;
#X obj 254 319 print Warning;
#X connect 0 0 4 0;
#X connect 2 0 3 0;
#X connect 3 0 5 0;
#X connect 4 0 6 0;
#X connect 4 1 2 0;
#X connect 5 0 6 1;
#X connect 5 0 7 0;
#X connect 6 0 1 0;
#X connect 7 0 8 0;
#X connect 8 0 9 0;
#X restore 80 575 pd multof4;
#X text 234 503 Convert from SLIP to a raw OSC message;
#X obj 82 237 mrpeach/slipenc 65536;
#X text 240 239 Convert from raw OSC to SLIP;
#X msg 302 675 connect localhost 7001;
#X obj 82 143 mrpeach/udpreceive 7000;
#X obj 187 291 loadbang;
#X text 156 569 Error checking : make sure the packet size is a multiple
of 4;
#X connect 0 0 19 0;
#X connect 2 0 1 0;
#X connect 6 0 7 0;
#X connect 7 0 14 0;
#X connect 7 1 5 0;
#X connect 9 0 7 0;
#X connect 12 0 7 0;
#X connect 14 0 15 0;
#X connect 15 0 1 0;
#X connect 17 0 7 0;
#X connect 19 0 1 0;
#X connect 20 0 17 0;
#X connect 21 0 9 0;
