#N canvas 181 122 1920 1007 12;
#X obj 96 368 cnv 15 800 300 empty empty empty 20 12 0 14 #c6ffc7 #404040
0;
#X obj 215 586 print errors;
#X msg 221 420 devices;
#X obj 113 556 comport/comport;
#X floatatom 113 796 5 0 0 0 - - - 0;
#X floatatom 566 804 5 0 0 0 - - - 0;
#X floatatom 1019 803 5 0 0 0 - - - 0;
#X obj 1020 927 noteout;
#X text 230 556 Serial port input/output;
#X msg 221 456 baud 115200 \, devicename COM3;
#X text 283 420 List all serial ports;
#X text 426 456 Configure the baud rate and open the named serial port
;
#X text 299 732 Route OSC messages;
#X obj 1019 831 cyclone/scale 0 1 0 127;
#X msg 1019 895 48 \$1 1;
#X obj 113 730 route /pot /photo /button;
#X text 1015 784 /button;
#X floatatom 1019 858 5 0 0 0 - - - 0;
#N canvas 26 26 450 300 convert_to_osc_slip 0;
#X obj 93 134 mrpeach/slipenc 65536;
#X obj 93 110 mrpeach/packOSC;
#X text 212 110 Convert to OSC;
#X text 249 133 Convert to SLIP;
#X obj 101 35 inlet;
#X obj 93 212 outlet;
#X connect 0 0 5 0;
#X connect 1 0 0 0;
#X connect 4 0 1 0;
#X restore 116 376 pd convert_to_osc_slip;
#X obj 117 98 ctlin 11;
#X text 1199 830 Scale 0 to 1 to MIDI range;
#X floatatom 117 131 5 0 0 0 - - - 0;
#X obj 117 164 change;
#X text 170 165 Only send value on change;
#X text 279 377 Convert to OSC SLIP;
#N canvas 26 26 941 670 convert_from_slip_osc 0;
#X obj 101 35 inlet;
#X obj 93 212 outlet;
#X obj 94 107 mrpeach/slipdec 65536;
#X obj 94 129 mrpeach/unpackOSC;
#X text 250 106 Convert from SLIP;
#X text 222 132 Convert from OSC;
#X connect 0 0 2 0;
#X connect 2 0 3 0;
#X connect 3 0 1 0;
#X restore 114 640 pd convert_from_slip_osc;
#X text 112 34 This patcher requires the following additionnal libraries
of objects : cyclone \, mrpeach and comport;
#X text 183 98 Receive MIDI CC 11;
#X msg 115 281 sendtyped /led i \$1;
#X text 268 283 Send as an int message with the address /led;
#X msg 263 487 close;
#X text 311 488 Close the port;
#X floatatom 569 862 5 0 0 0 - - - 0;
#X obj 570 931 ctlout 9;
#X text 566 781 /photo;
#X floatatom 112 859 5 0 0 0 - - - 0;
#X obj 113 928 ctlout 9;
#X text 121 773 /pot;
#X text 302 832 Scale 0 to 1023 to MIDI range;
#X text 759 835 Scale 0 to 1023 to MIDI range;
#X floatatom 117 244 5 0 0 0 - - - 0;
#X obj 118 205 cyclone/scale 0 127 0 255;
#X text 304 204 Scale MIDI to range 0 to 255;
#X obj 112 831 cyclone/scale 0 1023 0 127;
#X obj 567 835 cyclone/scale 0 1023 0 127;
#X connect 2 0 3 0;
#X connect 3 0 25 0;
#X connect 3 1 1 0;
#X connect 4 0 43 0;
#X connect 5 0 44 0;
#X connect 6 0 13 0;
#X connect 9 0 3 0;
#X connect 13 0 17 0;
#X connect 14 0 7 0;
#X connect 15 0 4 0;
#X connect 15 1 5 0;
#X connect 15 2 6 0;
#X connect 17 0 14 0;
#X connect 18 0 3 0;
#X connect 19 0 21 0;
#X connect 21 0 22 0;
#X connect 22 0 41 0;
#X connect 25 0 15 0;
#X connect 28 0 18 0;
#X connect 30 0 3 0;
#X connect 32 0 33 0;
#X connect 35 0 36 0;
#X connect 40 0 28 0;
#X connect 41 0 40 0;
#X connect 43 0 35 0;
#X connect 44 0 32 0;
