#N canvas 404 524 1050 539 12;
#X obj 122 163 mrpeach/unpackOSC;
#X obj 121 90 mrpeach/udpreceive 7777;
#X obj 457 302 mrpeach/packOSC;
#X obj 655 290 loadbang;
#X msg 655 332 connect 192.168.1.214 8888;
#X msg 607 251 sendtyped /test/m m 0 176 11 99;
#X floatatom 456 60 5 0 0 0 - - -;
#X msg 456 90 sendtyped /test/i i \$1;
#X floatatom 719 46 5 0 0 0 - - -;
#X msg 720 80 sendtyped /test/f f \$1;
#X msg 721 132 sendtyped /test/b b 41 42 43 44;
#X msg 710 176 sendtyped /test/s s hello;
#X msg 693 409 connect esp32.local 8888;
#X obj 460 469 mrpeach/udpsend;
#X msg 669 364 disconnect;
#X obj 122 223 print fromOscUdp;
#X connect 0 0 15 0;
#X connect 1 0 0 0;
#X connect 2 0 13 0;
#X connect 3 0 4 0;
#X connect 4 0 13 0;
#X connect 5 0 2 0;
#X connect 6 0 7 0;
#X connect 7 0 2 0;
#X connect 8 0 9 0;
#X connect 9 0 2 0;
#X connect 10 0 2 0;
#X connect 11 0 2 0;
#X connect 12 0 13 0;
#X connect 14 0 13 0;
