#N canvas 244 382 1451 798 12;
#X obj 203 445 mrpeach/slipdec 65536;
#X obj 202 287 mrpeach/slipenc 65536;
#X obj 466 260 loadbang;
#X obj 300 406 print errors;
#X obj 202 375 comport/comport;
#X msg 465 292 devicename COM3 \, pollintervall 1 \, baud 115200;
#X obj 203 252 mrpeach/packOSC;
#X obj 203 487 mrpeach/unpackOSC;
#X floatatom 195 41 5 0 0 0 - - -;
#X msg 195 71 sendtyped /test/i i \$1;
#X floatatom 458 27 5 0 0 0 - - -;
#X msg 459 61 sendtyped /test/f f \$1;
#X msg 460 113 sendtyped /test/b b 41 42 43 44;
#X msg 449 157 sendtyped /test/s s hello;
#X obj 201 546 print fromSlipOsc;
#X connect 0 0 7 0;
#X connect 1 0 4 0;
#X connect 2 0 5 0;
#X connect 4 0 0 0;
#X connect 4 1 3 0;
#X connect 5 0 4 0;
#X connect 6 0 1 0;
#X connect 7 0 14 0;
#X connect 8 0 9 0;
#X connect 9 0 6 0;
#X connect 10 0 11 0;
#X connect 11 0 6 0;
#X connect 12 0 6 0;
#X connect 13 0 6 0;
